<?xml version="1.0" standalone="no"?>
<!DOCTYPE svg PUBLIC "-//W3C//DTD SVG 20010904//EN"
 "http://www.w3.org/TR/2001/REC-SVG-20010904/DTD/svg10.dtd">
<svg version="1.0" xmlns="http://www.w3.org/2000/svg"
 width="512.000000pt" height="512.000000pt" viewBox="0 0 512.000000 512.000000"
 preserveAspectRatio="xMidYMid meet">

<g transform="translate(0.000000,512.000000) scale(0.100000,-0.100000)"
fill="#000000" stroke="none">
<path d="M1703 5074 c-141 -75 -193 -112 -278 -198 -202 -204 -381 -576 -429
-885 l-11 -75 -76 -33 c-127 -54 -267 -86 -357 -80 -42 3 -86 7 -96 9 -10 1
-21 -3 -23 -9 -12 -33 131 -117 264 -155 61 -18 104 -22 200 -23 68 0 123 -2
123 -5 0 -5 -58 -74 -261 -312 -359 -420 -559 -848 -559 -1197 0 -245 93 -378
296 -422 80 -17 143 -16 179 5 l30 17 -65 -5 c-105 -8 -160 30 -197 136 -28
83 -26 338 5 476 67 300 215 587 406 788 l85 89 -40 -78 c-44 -84 -86 -233
-115 -412 -17 -97 -19 -174 -19 -655 l0 -545 -28 -100 c-15 -57 -52 -150 -85
-218 l-59 -117 54 55 c30 30 58 55 63 55 4 0 28 27 53 60 l45 59 4 -107 c5
-123 28 -186 99 -275 l41 -52 -59 -10 c-44 -8 -64 -7 -83 2 -34 17 -105 16
-166 -2 -33 -10 -60 -12 -80 -7 -34 10 -214 -3 -261 -19 -41 -13 -67 -45 -83
-104 l-13 -45 -103 0 -104 0 0 -340 0 -340 2560 0 2560 0 0 355 0 355 -109 0
-109 0 -26 34 c-32 42 -54 50 -102 37 -36 -10 -39 -9 -71 29 -18 21 -48 43
-66 49 -62 21 -146 193 -192 395 l-16 68 45 87 c57 111 93 235 105 364 9 94 7
158 -13 337 l-7 55 19 -55 c23 -67 84 -189 125 -250 87 -128 163 -192 224
-189 21 1 52 -1 68 -5 l30 -6 -29 14 -29 13 22 13 c13 6 20 14 18 17 -3 2 -16
-1 -28 -8 -21 -11 -27 -8 -66 37 -48 54 -118 191 -153 296 -38 119 -60 249
-70 428 -19 327 -30 455 -46 530 -16 78 -66 238 -102 327 l-21 52 24 -9 c13
-5 41 -18 62 -28 105 -53 249 -78 260 -46 2 6 -54 53 -124 105 -131 95 -381
335 -596 571 -54 59 -115 120 -137 135 -23 16 -38 34 -35 42 13 36 17 251 5
319 -36 217 -211 380 -478 448 -159 40 -285 29 -417 -37 -110 -56 -238 -166
-305 -264 -34 -50 -50 -48 -50 6 0 49 -39 178 -79 261 -43 92 -100 163 -166
208 l-44 30 -181 0 c-106 0 -189 -4 -201 -10 -24 -14 -25 -54 -1 -78 15 -15
41 -20 118 -25 105 -7 174 -22 174 -37 0 -6 -11 -10 -24 -10 -13 0 -53 -9 -88
-20 -34 -11 -90 -20 -123 -20 -138 -1 -316 -61 -461 -155 -64 -41 -86 -51 -90
-41 -3 8 -21 22 -40 31 -32 15 -39 15 -75 1 l-39 -16 0 38 c0 69 115 166 340
286 90 48 100 56 73 56 -19 0 -68 -19 -120 -46z m628 -198 c141 -30 265 -119
318 -229 21 -44 57 -174 50 -181 -2 -2 -38 7 -79 21 -58 20 -102 27 -197 31
-144 6 -206 -4 -353 -58 -58 -21 -145 -46 -193 -55 -163 -30 -309 -98 -521
-242 -76 -51 -140 -92 -143 -90 -6 7 47 146 84 222 188 377 501 592 868 594
55 0 130 -6 166 -13z m1352 -68 c33 -18 83 -54 111 -79 47 -44 49 -47 33 -63
-27 -28 -22 -78 13 -111 35 -33 38 -45 11 -45 -10 0 -30 -9 -45 -21 l-26 -21
-73 36 c-40 20 -75 36 -79 36 -4 0 6 -21 22 -47 16 -26 28 -48 26 -51 -2 -2
-24 9 -48 24 -23 15 -84 46 -134 69 -80 36 -90 43 -80 57 7 10 30 18 56 20 42
3 45 5 51 38 4 19 17 41 28 49 25 16 29 83 7 136 l-14 34 40 -15 c22 -7 67
-28 101 -46z m-316 -266 c219 -74 410 -208 473 -332 l22 -44 -63 65 c-104 105
-286 203 -489 261 -107 31 -125 33 -255 32 -116 0 -150 -4 -200 -21 -33 -12
-61 -20 -63 -18 -9 8 130 65 193 79 113 25 268 16 382 -22z m-2363 -869 c6
-19 2 -24 -21 -30 -81 -23 -251 12 -397 81 l-71 34 50 1 c28 1 88 10 135 21
87 21 261 97 276 121 6 9 11 -26 15 -96 3 -60 9 -120 13 -132z m180 163 c-4
-27 -2 -46 5 -50 15 -10 13 -76 -3 -105 l-13 -24 -7 28 c-9 36 4 206 15 199 5
-3 6 -24 3 -48z m-112 -364 c35 -75 127 -177 201 -223 29 -17 65 -41 81 -51
28 -20 138 -48 186 -48 13 0 66 21 118 46 83 40 96 44 109 31 13 -13 12 -27
-13 -113 -27 -97 -53 -153 -41 -87 8 42 -20 70 -79 79 -56 8 -93 -14 -170
-102 -40 -46 -60 -62 -68 -54 -7 7 -1 30 23 75 18 36 31 75 29 87 -8 59 -90
14 -140 -77 -32 -58 -35 -60 -77 -63 -41 -3 -42 -2 -36 20 4 13 14 35 22 51 9
19 10 27 2 27 -6 0 -27 17 -45 37 -34 37 -42 74 -35 165 3 37 -37 63 -81 54
-18 -4 -52 -9 -76 -10 -23 -2 -49 -9 -57 -16 -12 -10 -21 -10 -45 0 -23 10
-37 10 -55 2 -14 -7 -25 -9 -25 -5 0 3 42 56 93 117 52 61 102 124 112 140
l19 29 10 -24 c5 -13 22 -52 38 -87z m240 -28 c-11 -37 -10 -38 32 -81 44 -44
71 -52 108 -32 17 9 25 6 49 -20 15 -17 32 -31 38 -31 40 0 121 28 149 52 44
37 54 35 50 -9 -3 -37 -4 -38 -78 -65 -55 -20 -94 -28 -143 -28 -147 0 -209
38 -273 165 -32 63 -33 70 -17 74 10 2 29 11 43 22 21 15 27 16 39 4 12 -12
12 -21 3 -51z m2538 -135 c47 -67 90 -99 133 -99 47 0 96 27 118 64 l21 36 38
-20 c22 -11 54 -20 73 -20 l34 0 33 -137 c17 -76 34 -148 37 -161 4 -19 -1
-25 -26 -35 -21 -8 -35 -22 -43 -44 -10 -27 -17 -33 -41 -33 -55 0 -126 -40
-165 -93 -34 -45 -41 -49 -82 -52 -25 -1 -60 -6 -77 -9 -29 -7 -32 -5 -38 24
-6 26 -3 35 14 46 25 18 27 39 5 48 -12 5 -10 10 12 29 l26 23 -39 100 c-22
54 -50 131 -61 169 -23 79 -39 225 -24 225 5 0 28 -27 52 -61z m-1358 -51 c-3
-43 -18 -96 -47 -168 -24 -58 -60 -158 -80 -222 -28 -90 -41 -118 -54 -118 -9
0 -23 -6 -29 -12 -16 -16 -32 5 -32 40 0 23 -22 50 -64 77 -24 16 -28 16 -51
1 -13 -9 -30 -34 -36 -56 -7 -22 -15 -40 -19 -40 -14 0 -21 176 -10 275 15
150 17 156 46 149 17 -4 33 1 56 20 48 37 62 50 74 72 10 15 12 6 13 -51 0
-51 5 -76 19 -95 24 -32 67 -48 90 -34 23 15 77 108 98 172 10 28 21 52 24 52
4 0 4 -28 2 -62z m798 -348 c13 -108 66 -322 104 -423 66 -172 146 -299 252
-396 42 -39 62 -62 53 -65 -33 -11 -244 -27 -495 -38 -223 -10 -281 -10 -327
1 -30 8 -62 11 -71 8 -9 -4 -16 -4 -16 -2 0 10 84 193 188 410 145 303 196
458 264 795 l23 115 7 -155 c4 -85 12 -198 18 -250z m1117 329 c17 -11 34 -26
37 -35 3 -9 6 -60 6 -114 0 -95 -1 -99 -26 -119 -52 -41 -52 -40 -104 166 -16
67 -30 124 -30 128 0 11 86 -8 117 -26z m-2348 -48 c-1 -52 -26 -241 -32 -248
-13 -13 -29 15 -34 59 -6 47 9 156 26 200 13 35 41 27 40 -11z m-238 -111
c-23 -61 -59 -125 -67 -118 -5 6 30 161 46 203 l12 30 15 -30 c13 -28 13 -35
-6 -85z m1350 -79 c-23 -84 -46 -162 -51 -175 -9 -24 -85 -66 -120 -66 -14 0
-26 -15 -45 -56 -23 -49 -28 -55 -48 -49 -12 4 -34 9 -50 12 -15 3 -32 14 -38
24 -5 11 -16 19 -23 19 -7 0 -21 9 -31 20 -26 29 -43 25 -83 -17 -19 -21 -45
-43 -58 -50 -21 -10 -25 -9 -34 7 -5 10 -10 26 -10 35 0 8 -8 19 -17 22 -10 4
-29 15 -42 25 -28 21 -53 23 -81 6 -17 -11 -22 -10 -29 1 -7 11 -14 4 -30 -25
l-22 -39 7 45 c14 97 117 394 134 388 5 -2 19 -19 32 -38 18 -27 31 -35 53
-35 24 0 34 -7 50 -35 21 -35 21 -35 91 -35 67 0 73 -2 101 -32 33 -35 114
-56 136 -34 6 6 25 11 42 11 28 0 33 5 54 55 19 44 27 55 46 55 31 0 51 21 65
67 6 21 14 44 16 52 3 10 8 11 15 4 8 -8 -1 -56 -30 -162z m438 86 c43 -109
67 -154 112 -213 52 -67 71 -117 63 -159 -6 -33 -7 -33 -56 -32 l-50 2 -19 50
c-19 49 -19 49 2 72 27 28 19 52 -21 60 -24 4 -29 9 -24 22 4 9 9 35 12 57 3
35 -1 47 -26 75 -30 35 -52 115 -37 139 9 15 9 16 44 -73z m-233 -59 c15 -24
34 -52 44 -63 10 -11 21 -31 25 -45 10 -34 34 -60 55 -60 25 0 31 -36 12 -70
-19 -33 -14 -43 25 -42 30 0 43 -12 43 -40 0 -21 -26 -23 -81 -7 -33 10 -38
16 -44 50 -4 22 -11 39 -16 39 -5 0 -9 9 -9 20 0 11 -4 20 -9 20 -5 0 -7 -18
-4 -40 9 -68 -24 -46 -71 48 -33 66 -56 210 -35 223 26 16 39 9 65 -33z m199
-23 c28 -27 31 -61 13 -111 -14 -39 1 -65 32 -57 24 6 26 -4 5 -26 -12 -15
-11 -26 11 -98 30 -98 58 -128 104 -111 17 5 42 24 56 41 25 30 26 30 19 7
-17 -55 -56 -118 -91 -149 -34 -30 -41 -32 -83 -26 -88 12 -171 70 -192 132
-6 18 -17 33 -25 33 -17 0 -17 1 -3 37 10 28 10 28 29 -27 31 -93 105 -130
148 -75 11 13 22 21 26 18 15 -15 4 38 -21 105 -20 52 -33 72 -45 72 -21 0
-23 11 -7 27 20 20 -8 73 -37 73 -45 0 -71 92 -38 138 21 30 68 29 99 -3z
m263 -237 c2 -24 -1 -55 -7 -68 -8 -21 -10 -17 -10 28 -1 29 -8 67 -17 85
l-17 31 24 -16 c18 -12 25 -26 27 -60z m62 -773 c0 -8 -7 -15 -16 -15 -14 0
-14 3 -4 15 7 8 14 15 16 15 2 0 4 -7 4 -15z m-1086 -106 c-29 -30 -30 -38 -6
-38 40 1 252 -14 252 -18 0 -2 -10 -32 -22 -66 -31 -89 -32 -253 -2 -318 66
-142 229 -214 406 -179 176 34 248 127 274 351 6 61 -15 165 -42 207 -9 13
-14 26 -11 28 2 3 31 9 64 14 33 6 81 16 108 25 27 8 51 13 53 11 2 -2 -13
-36 -33 -76 -26 -51 -33 -76 -26 -83 7 -7 17 -5 32 9 l21 19 -7 -55 c-49 -392
-93 -572 -191 -778 -55 -114 -93 -162 -169 -214 l-40 -27 -763 -7 -763 -7 25
48 c15 26 26 55 26 64 0 9 17 61 37 116 34 95 36 108 40 250 4 115 1 166 -11
218 -9 38 -16 71 -16 75 0 12 175 -181 192 -212 40 -72 70 -190 75 -297 l6
-107 33 20 c42 25 74 68 95 131 l17 49 30 -44 c39 -57 108 -94 201 -109 76
-11 161 -5 161 12 0 5 -11 22 -25 37 -82 87 -145 318 -145 530 0 150 17 266
61 408 l32 101 28 -31 28 -31 -25 -26z m327 -69 c9 0 28 -11 44 -25 21 -20 26
-32 21 -53 -6 -24 -5 -25 5 -7 20 34 41 55 50 49 5 -3 0 -15 -12 -27 -15 -17
-19 -30 -14 -58 5 -31 3 -37 -14 -42 -18 -4 -21 -13 -21 -59 0 -47 4 -60 33
-93 31 -35 38 -39 103 -45 l69 -7 -61 -2 c-48 -1 -68 4 -95 22 -45 30 -71 81
-67 135 2 28 -1 42 -9 42 -7 0 -18 8 -24 18 -12 19 -62 19 -86 0 -19 -15 -17
45 3 111 13 47 18 52 37 47 12 -3 29 -6 38 -6z m435 -41 c48 -12 53 -19 28
-40 -12 -10 -14 -23 -9 -54 4 -32 2 -45 -10 -55 -14 -12 -18 -11 -26 1 -5 8
-9 22 -9 32 0 9 -12 36 -26 58 -20 32 -23 43 -13 55 14 17 10 17 65 3z m-65
-76 c27 -64 28 -136 2 -171 -22 -30 -80 -72 -97 -72 -6 1 5 9 25 20 19 10 41
26 49 35 21 25 25 153 7 198 -9 20 -14 37 -11 37 3 0 14 -21 25 -47z m-384
-56 c-2 -7 2 -19 10 -28 12 -14 11 -18 -2 -29 -12 -10 -15 -10 -15 3 0 8 -3
29 -7 47 -4 25 -3 31 6 26 7 -4 10 -13 8 -19z m-29 -19 c14 -14 16 -44 4 -52
-4 -2 -18 4 -32 14 -20 15 -22 20 -11 34 16 19 23 20 39 4z m503 -48 c5 0 8
-3 7 -7 -1 -5 4 -20 11 -34 15 -31 1 -69 -27 -69 -9 0 -25 -7 -35 -15 -49 -36
-59 19 -15 76 28 37 36 55 19 45 -5 -4 -7 3 -4 14 5 17 7 17 20 5 8 -8 19 -15
24 -15z m29 20 c0 -5 -5 -10 -11 -10 -5 0 -7 5 -4 10 3 6 8 10 11 10 2 0 4 -4
4 -10z m-554 -39 c20 -16 22 -20 9 -31 -12 -10 -12 -14 0 -26 22 -22 38 -17
32 11 -3 17 0 24 7 22 6 -3 19 2 28 10 15 14 18 13 24 -12 4 -15 2 -31 -4 -37
-12 -12 4 -58 25 -71 7 -4 13 -18 13 -30 0 -12 4 -17 8 -12 11 15 90 37 155
42 34 3 57 9 57 16 0 8 3 7 9 -1 4 -7 23 -15 42 -17 19 -1 52 -10 74 -20 26
-11 36 -12 28 -4 -14 14 -18 49 -5 49 4 0 13 -12 20 -28 12 -25 11 -29 -25
-60 -75 -66 -257 -87 -362 -42 -47 21 -51 25 -37 36 25 18 2 52 -30 46 -16 -3
-26 1 -30 13 -5 11 -9 13 -14 5 -8 -13 -45 68 -55 123 -8 42 -3 45 31 18z
m594 -15 c0 -7 -6 -19 -14 -25 -11 -9 -12 -6 -8 14 5 26 22 35 22 11z m640
-348 c13 -118 41 -220 80 -299 17 -32 28 -59 25 -59 -3 0 -17 7 -31 16 -14 10
-55 19 -95 22 -70 5 -71 5 -65 31 26 112 47 250 58 381 11 133 13 144 15 80 2
-41 8 -119 13 -172z m-3124 -324 c8 -38 19 -83 23 -101 13 -48 3 -83 -24 -83
-33 0 -57 93 -61 240 l-4 115 25 -51 c14 -28 32 -82 41 -120z m-301 -43 c75
-5 107 -11 129 -25 l28 -20 -23 -10 -24 -9 25 -5 c46 -7 107 -78 121 -140 11
-49 -8 -149 -30 -157 -25 -8 -91 -73 -101 -99 -7 -19 -19 -25 -57 -30 -26 -4
-63 -10 -80 -13 l-33 -5 26 46 c14 25 34 51 44 56 10 5 19 25 23 49 6 45 -15
226 -27 238 -5 5 -5 -47 -1 -113 7 -124 3 -164 -18 -164 -7 0 -33 -31 -60 -69
-44 -65 -50 -70 -93 -77 -25 -3 -60 -2 -77 3 -27 7 -33 15 -40 53 -8 42 -4
151 8 265 5 42 4 46 -6 25 -23 -52 -36 -164 -29 -260 4 -52 5 -98 3 -102 -2
-5 -35 -8 -72 -8 -78 0 -81 2 -135 98 l-35 63 14 82 c8 45 21 107 29 137 8 30
13 56 12 58 -7 7 -56 -120 -67 -175 -12 -58 -11 -69 9 -131 26 -82 26 -82 5
-82 -26 0 -163 140 -163 166 0 37 76 283 94 303 10 11 40 23 74 28 68 11 207
10 241 -2 20 -7 23 -5 18 8 -5 13 3 17 41 22 26 4 52 8 57 10 6 2 24 1 40 -2
17 -3 75 -9 130 -12z m3487 -4 c37 -17 62 -18 84 -5 19 12 168 12 190 0 12 -6
37 -35 55 -64 29 -45 34 -50 37 -30 3 21 8 23 49 20 37 -2 50 -9 66 -30 20
-26 20 -33 9 -129 -11 -91 -17 -111 -60 -189 -47 -87 -47 -87 -79 -78 -23 6
-33 15 -37 36 -16 83 -18 103 -7 116 15 18 28 186 14 186 -12 0 -23 -56 -23
-114 0 -25 -7 -47 -19 -60 -11 -12 -36 -53 -56 -91 l-37 -70 -66 -6 c-43 -3
-72 -1 -79 6 -30 26 -11 212 24 240 10 8 11 27 4 83 -12 91 -21 104 -21 28 0
-68 -23 -166 -52 -216 -10 -20 -46 -57 -78 -83 -57 -47 -58 -47 -131 -46 -112
1 -115 3 -111 85 2 38 7 105 12 149 5 44 12 105 15 135 l5 55 -16 -35 c-9 -19
-18 -51 -20 -70 -2 -19 -8 -69 -13 -110 -6 -41 -11 -101 -11 -132 0 -53 -2
-58 -25 -64 -38 -10 -75 4 -104 38 -14 17 -41 48 -58 68 -31 36 -33 41 -33
116 1 144 30 214 106 256 40 22 52 23 235 22 160 0 200 -3 231 -17z"/>
<path d="M3498 2999 c-21 -12 -24 -69 -6 -87 33 -33 87 13 69 60 -5 14 -17 28
-26 32 -20 7 -16 8 -37 -5z m42 -58 c0 -11 -26 -22 -34 -14 -12 12 -5 23 14
23 11 0 20 -4 20 -9z"/>
<path d="M3740 1265 c0 -8 9 -15 20 -15 11 0 20 7 20 15 0 8 -9 15 -20 15 -11
0 -20 -7 -20 -15z"/>
<path d="M3720 1230 c0 -5 7 -10 15 -10 8 0 15 5 15 10 0 6 -7 10 -15 10 -8 0
-15 -4 -15 -10z"/>
<path d="M3665 1203 c-11 -2 -55 -13 -99 -24 -82 -21 -182 -27 -325 -19 -59 3
-86 1 -88 -7 -10 -28 218 -51 333 -33 61 9 214 70 214 85 0 5 -3 5 -35 -2z"/>
</g>
</svg>
